<svg width="48" height="48" viewBox="0 0 48 48" xmlns="http://www.w3.org/2000/svg">
  <defs>
    <linearGradient id="bg" x1="0" y1="0" x2="0" y2="1">
      <stop offset="0" stop-color="#333333"/>
      <stop offset="1" stop-color="#4d4d4d"/>
    </linearGradient>
  </defs>

  <path d="M 0 13 L 48 13 L 48 40 Q 48 42 46 42 L 2 42 Q 0 42 0 40 Z" fill="url(#bg)"/>

  <path d="M 2 6 L 46 6 Q 48 6 48 8 L 48 13 L 0 13 L 0 8 Q 0 6 2 6 Z" fill="#666666"/>

  <path d="M 2 6 L 22 6 Q 24 6 24 8 L 24 12 Q 24 13 25 13 L 0 13 L 0 8 Q 0 6 2 6 Z" fill="#999999"/>

  <line x1="18" y1="27.5" x2="48" y2="27.5" stroke="#999999" stroke-width="3"/>
  <line x1="18" y1="13" x2="18" y2="42" stroke="#cccccc" stroke-width="3"/>
</svg>
